<svg width="1481" height="578" viewBox="0 0 1481 578" fill="none" xmlns="http://www.w3.org/2000/svg">
<path d="M451.491 504.363H448.451L439.331 480.843H439.251L439.331 481.923V504.363H435.571V476.363H441.211L449.971 499.403L458.731 476.363H464.371V504.363H460.611V481.923L460.691 480.843H460.571L451.491 504.363Z" fill="white"/>
<path d="M484.477 498.483H487.837C487.517 500.27 486.65 501.83 485.237 503.163C483.823 504.497 481.73 505.163 478.957 505.163C475.197 505.163 472.437 503.923 470.677 501.443C469.797 500.137 469.223 498.737 468.957 497.243C468.77 496.203 468.677 495.217 468.677 494.283C468.677 492.497 468.943 490.817 469.477 489.243C469.823 488.123 470.33 487.15 470.997 486.323C471.717 485.443 472.743 484.71 474.077 484.123C475.41 483.537 476.917 483.243 478.597 483.243C481.583 483.243 483.837 484.07 485.357 485.723C485.997 486.417 486.517 487.297 486.917 488.363C487.503 489.91 487.863 491.79 487.997 494.003C487.997 494.083 487.997 494.257 487.997 494.523C488.023 494.79 488.037 494.95 488.037 495.003H472.397C472.397 497.03 472.93 498.817 473.997 500.363C475.063 501.91 476.677 502.683 478.837 502.683C480.383 502.683 481.65 502.297 482.637 501.523C483.623 500.75 484.237 499.737 484.477 498.483ZM472.397 492.523H484.317C484.29 490.95 483.917 489.497 483.197 488.163C482.37 486.537 480.863 485.723 478.677 485.723C476.197 485.723 474.49 486.55 473.557 488.203C472.783 489.537 472.397 490.977 472.397 492.523Z" fill="white"/>
<path d="M491.849 511.763V484.043H495.129V486.843H495.249C496.849 484.443 499.089 483.243 501.969 483.243C504.609 483.243 506.796 484.163 508.529 486.003C510.262 487.87 511.129 490.603 511.129 494.203C511.129 497.883 510.249 500.63 508.489 502.443C506.756 504.257 504.609 505.163 502.049 505.163C501.249 505.163 500.276 504.99 499.129 504.643C497.449 504.137 496.196 503.07 495.369 501.443V511.763H491.849ZM495.129 494.283C495.129 497.11 495.769 499.23 497.049 500.643C498.382 502.003 499.836 502.683 501.409 502.683C503.062 502.683 504.476 502.017 505.649 500.683C506.822 499.297 507.409 497.137 507.409 494.203C507.409 491.537 506.862 489.457 505.769 487.963C504.702 486.47 503.182 485.723 501.209 485.723C500.169 485.723 499.196 486.003 498.289 486.563C496.182 487.817 495.129 490.39 495.129 494.283Z" fill="white"/>
<path d="M513.328 490.843V484.043H516.849V490.283C516.849 491.377 517.035 492.19 517.409 492.723C517.862 493.31 519.208 493.603 521.448 493.603C521.662 493.603 522.435 493.577 523.769 493.523C523.902 493.497 524.182 493.483 524.609 493.483H525.448V484.043H528.969V504.363H525.448V495.963C524.275 496.043 522.702 496.083 520.729 496.083C517.315 496.083 515.169 495.55 514.289 494.483C513.889 493.95 513.622 493.443 513.489 492.963C513.382 492.483 513.328 491.777 513.328 490.843Z" fill="white"/>
<path d="M546.577 495.843H542.617V491.443H546.577V495.843Z" fill="white"/>
<path d="M580.593 479.523H564.473V487.923H573.073C579.313 487.923 582.433 490.697 582.433 496.243C582.433 497.283 582.286 498.243 581.993 499.123C581.726 500.003 581.26 500.857 580.593 501.683C579.953 502.51 578.993 503.163 577.713 503.643C576.433 504.123 574.9 504.363 573.113 504.363H560.713V476.363H580.593V479.523ZM572.313 491.083H564.473V501.203H572.313C576.5 501.203 578.593 499.563 578.593 496.283C578.593 492.817 576.5 491.083 572.313 491.083Z" fill="white"/>
<path d="M586.112 511.763V484.043H589.392V486.843H589.512C591.112 484.443 593.352 483.243 596.232 483.243C598.872 483.243 601.058 484.163 602.792 486.003C604.525 487.87 605.392 490.603 605.392 494.203C605.392 497.883 604.512 500.63 602.752 502.443C601.018 504.257 598.872 505.163 596.312 505.163C595.512 505.163 594.538 504.99 593.392 504.643C591.712 504.137 590.458 503.07 589.632 501.443V511.763H586.112ZM589.392 494.283C589.392 497.11 590.032 499.23 591.312 500.643C592.645 502.003 594.098 502.683 595.672 502.683C597.325 502.683 598.738 502.017 599.912 500.683C601.085 499.297 601.672 497.137 601.672 494.203C601.672 491.537 601.125 489.457 600.032 487.963C598.965 486.47 597.445 485.723 595.472 485.723C594.432 485.723 593.458 486.003 592.552 486.563C590.445 487.817 589.392 490.39 589.392 494.283Z" fill="white"/>
<path d="M623.819 498.483H627.179C626.859 500.27 625.992 501.83 624.579 503.163C623.166 504.497 621.072 505.163 618.299 505.163C614.539 505.163 611.779 503.923 610.019 501.443C609.139 500.137 608.565 498.737 608.299 497.243C608.112 496.203 608.019 495.217 608.019 494.283C608.019 492.497 608.286 490.817 608.819 489.243C609.166 488.123 609.672 487.15 610.339 486.323C611.059 485.443 612.085 484.71 613.419 484.123C614.752 483.537 616.259 483.243 617.939 483.243C620.926 483.243 623.179 484.07 624.699 485.723C625.339 486.417 625.859 487.297 626.259 488.363C626.846 489.91 627.205 491.79 627.339 494.003C627.339 494.083 627.339 494.257 627.339 494.523C627.365 494.79 627.379 494.95 627.379 495.003H611.739C611.739 497.03 612.272 498.817 613.339 500.363C614.405 501.91 616.019 502.683 618.179 502.683C619.725 502.683 620.992 502.297 621.979 501.523C622.965 500.75 623.579 499.737 623.819 498.483ZM611.739 492.523H623.659C623.632 490.95 623.259 489.497 622.539 488.163C621.712 486.537 620.205 485.723 618.019 485.723C615.539 485.723 613.832 486.55 612.899 488.203C612.125 489.537 611.739 490.977 611.739 492.523Z" fill="white"/>
<path d="M644.751 494.883H634.711V504.363H631.191V484.043H634.711V492.403H644.751V484.043H648.271V504.363H644.751V494.883Z" fill="white"/>
<path d="M650.683 509.643L650.363 501.883H652.923C655.136 498.63 656.243 493.817 656.243 487.443V484.043H670.803V501.883H674.323L674.043 509.643H671.083V504.363H653.643V509.643H650.683ZM667.283 501.883V486.523H659.523V489.363C659.523 491.523 659.283 493.763 658.803 496.083C658.376 498.377 657.656 500.31 656.643 501.883H667.283Z" fill="white"/>
<path d="M680.064 484.043V500.243L690.664 484.043H694.584V504.363H691.064V488.123L680.504 504.363H676.544V484.043H680.064Z" fill="white"/>
<path d="M713.094 494.883H703.054V504.363H699.534V484.043H703.054V492.403H713.094V484.043H716.614V504.363H713.094V494.883Z" fill="white"/>
<path d="M735.505 486.523H725.105V504.363H721.585V484.043H735.505V486.523Z" fill="white"/>
<path d="M750.746 495.843H746.786V491.443H750.746V495.843Z" fill="white"/>
<path d="M782.722 479.523H768.642V504.363H764.882V476.363H782.722V479.523Z" fill="white"/>
<path d="M781.062 511.763V484.043H784.342V486.843H784.462C786.062 484.443 788.302 483.243 791.182 483.243C793.822 483.243 796.008 484.163 797.742 486.003C799.475 487.87 800.342 490.603 800.342 494.203C800.342 497.883 799.462 500.63 797.702 502.443C795.968 504.257 793.822 505.163 791.262 505.163C790.462 505.163 789.488 504.99 788.342 504.643C786.662 504.137 785.408 503.07 784.582 501.443V511.763H781.062ZM784.342 494.283C784.342 497.11 784.982 499.23 786.262 500.643C787.595 502.003 789.048 502.683 790.622 502.683C792.275 502.683 793.688 502.017 794.862 500.683C796.035 499.297 796.622 497.137 796.622 494.203C796.622 491.537 796.075 489.457 794.982 487.963C793.915 486.47 792.395 485.723 790.422 485.723C789.382 485.723 788.408 486.003 787.502 486.563C785.395 487.817 784.342 490.39 784.342 494.283Z" fill="white"/>
<path d="M806.809 490.043H803.449C803.449 488.443 803.982 486.977 805.049 485.643C806.329 484.043 808.676 483.243 812.089 483.243C814.089 483.243 815.849 483.643 817.369 484.443C818.249 484.87 818.942 485.577 819.449 486.563C819.956 487.55 820.195 488.723 820.169 490.083L819.969 499.483C819.969 500.257 820.049 500.857 820.209 501.283C820.449 501.71 821.076 501.91 822.089 501.883V504.363C821.689 504.47 821.155 504.523 820.489 504.523C819.315 504.523 818.462 504.323 817.929 503.923C817.422 503.523 817.062 502.737 816.849 501.563C815.542 503.963 813.222 505.163 809.889 505.163C807.596 505.163 805.822 504.657 804.569 503.643C803.342 502.603 802.729 501.07 802.729 499.043C802.729 497.123 803.422 495.67 804.809 494.683C806.196 493.643 808.822 492.95 812.689 492.603C814.476 492.47 815.542 492.297 815.889 492.083C816.396 491.737 816.649 490.977 816.649 489.803C816.649 487.083 815.129 485.723 812.089 485.723C808.489 485.723 806.729 487.163 806.809 490.043ZM816.569 495.683L816.649 493.963C816.249 494.257 815.662 494.497 814.889 494.683C813.716 494.763 812.809 494.857 812.169 494.963C809.955 495.337 808.609 495.643 808.129 495.883C806.956 496.443 806.369 497.457 806.369 498.923C806.369 500.097 806.715 501.017 807.409 501.683C808.129 502.35 809.089 502.683 810.289 502.683C811.062 502.683 811.769 502.577 812.409 502.363C813.075 502.15 813.716 501.803 814.329 501.323C814.969 500.817 815.475 500.083 815.849 499.123C816.249 498.163 816.489 497.017 816.569 495.683Z" fill="white"/>
<path d="M840.198 511.763H836.678V504.883C834.358 504.83 832.358 504.51 830.678 503.923C829.025 503.31 827.745 502.483 826.838 501.443C825.932 500.403 825.278 499.283 824.878 498.083C824.478 496.883 824.278 495.55 824.278 494.083C824.278 492.137 824.692 490.323 825.518 488.643C827.145 485.177 830.865 483.483 836.678 483.563V476.363H840.198V483.563C842.598 483.51 844.718 483.857 846.558 484.603C847.758 485.057 848.772 485.657 849.598 486.403C850.505 487.15 851.225 488.203 851.758 489.563C852.318 490.897 852.598 492.403 852.598 494.083C852.598 497.443 851.585 500.057 849.558 501.923C847.532 503.79 844.412 504.777 840.198 504.883V511.763ZM836.678 502.403V486.043C834.652 485.91 832.772 486.35 831.038 487.363C829.012 488.59 827.998 490.817 827.998 494.043C827.998 496.763 828.718 498.803 830.158 500.163C831.865 501.71 834.038 502.457 836.678 502.403ZM840.198 486.043V502.403C843.638 502.403 845.998 501.43 847.278 499.483C848.345 497.857 848.878 496.043 848.878 494.043C848.878 493.403 848.825 492.763 848.718 492.123C848.612 491.457 848.358 490.723 847.958 489.923C847.585 489.123 847.092 488.443 846.478 487.883C845.892 487.297 845.052 486.83 843.958 486.483C842.892 486.11 841.638 485.963 840.198 486.043Z" fill="white"/>
<path d="M859.916 484.043V500.243L870.516 484.043H874.436V504.363H870.916V488.123L860.356 504.363H856.396V484.043H859.916Z" fill="white"/>
<path d="M882.905 484.043V492.923L891.585 484.043H895.705L886.185 493.483L896.225 504.363H892.025L882.905 494.203V504.363H879.385V484.043H882.905Z" fill="white"/>
<path d="M900.835 490.043H897.475C897.475 488.443 898.009 486.977 899.075 485.643C900.355 484.043 902.702 483.243 906.115 483.243C908.115 483.243 909.875 483.643 911.395 484.443C912.275 484.87 912.969 485.577 913.475 486.563C913.982 487.55 914.222 488.723 914.195 490.083L913.995 499.483C913.995 500.257 914.075 500.857 914.235 501.283C914.475 501.71 915.102 501.91 916.115 501.883V504.363C915.715 504.47 915.182 504.523 914.515 504.523C913.342 504.523 912.489 504.323 911.955 503.923C911.449 503.523 911.089 502.737 910.875 501.563C909.569 503.963 907.249 505.163 903.915 505.163C901.622 505.163 899.849 504.657 898.595 503.643C897.369 502.603 896.755 501.07 896.755 499.043C896.755 497.123 897.449 495.67 898.835 494.683C900.222 493.643 902.849 492.95 906.715 492.603C908.502 492.47 909.569 492.297 909.915 492.083C910.422 491.737 910.675 490.977 910.675 489.803C910.675 487.083 909.155 485.723 906.115 485.723C902.515 485.723 900.755 487.163 900.835 490.043ZM910.595 495.683L910.675 493.963C910.275 494.257 909.689 494.497 908.915 494.683C907.742 494.763 906.835 494.857 906.195 494.963C903.982 495.337 902.635 495.643 902.155 495.883C900.982 496.443 900.395 497.457 900.395 498.923C900.395 500.097 900.742 501.017 901.435 501.683C902.155 502.35 903.115 502.683 904.315 502.683C905.089 502.683 905.795 502.577 906.435 502.363C907.102 502.15 907.742 501.803 908.355 501.323C908.995 500.817 909.502 500.083 909.875 499.123C910.275 498.163 910.515 497.017 910.595 495.683Z" fill="white"/>
<path d="M303.232 150.363H286.432L260.182 75.3633H259.732V150.363H234.982V45.3633H269.782L294.832 117.513L319.882 45.3633H354.682V150.363H329.932V75.3633H329.482L303.232 150.363Z" fill="white"/>
<path d="M389.205 45.3633L412.155 96.6633L430.305 45.3633H457.155L422.955 128.913C418.755 139.213 413.655 145.863 407.655 148.863C402.855 151.163 397.105 152.313 390.405 152.313C385.005 152.313 379.755 151.663 374.655 150.363V129.963C378.255 130.963 381.805 131.463 385.305 131.463C392.305 131.463 396.705 128.113 398.505 121.413L359.655 45.3633H389.205Z" fill="white"/>
<path d="M439.315 150.363V129.963C451.315 131.663 458.765 127.063 461.665 116.163C462.965 111.763 463.665 104.863 463.765 95.4633L464.515 45.3633H542.215V150.363H517.465V65.7633H487.915L487.165 102.363C486.765 118.563 483.865 130.413 478.465 137.913C470.765 148.713 457.715 152.863 439.315 150.363Z" fill="white"/>
<path d="M545.863 45.3633H570.613V83.4633H596.713C602.613 83.4633 607.813 84.1633 612.313 85.5633C616.913 86.9633 620.563 88.7633 623.263 90.9633C625.963 93.1633 628.163 95.8133 629.863 98.9133C631.663 102.013 632.863 105.113 633.463 108.213C634.163 111.213 634.513 114.413 634.513 117.813C634.513 128.913 631.363 137.113 625.063 142.413C618.763 147.713 609.263 150.363 596.563 150.363H545.863V45.3633ZM590.863 103.863H570.613V129.963H591.613C602.413 129.963 607.813 125.613 607.813 116.913C607.813 108.213 602.163 103.863 590.863 103.863Z" fill="white"/>
<path d="M646.381 150.363V65.7633H614.581V45.3633H702.781V65.7633H671.131V150.363H646.381Z" fill="white"/>
<path d="M733.416 45.3633V113.163L775.266 45.3633H800.016V150.363H775.266V81.8133L733.416 150.363H708.666V45.3633H733.416Z" fill="white"/>
<path d="M872.03 119.613H828.68V100.863H872.03V119.613Z" fill="white"/>
<path d="M125.935 162.363V246.963H140.785L139.585 291.063H117.685V267.363H46.7348V291.063H24.8348L23.6348 246.963H33.9848C44.5848 231.263 49.8848 211.163 49.8848 186.663V162.363H125.935ZM101.185 246.963V182.763H73.1348L72.9848 195.213C72.8848 207.113 71.8848 217.163 69.9848 225.363C68.1848 233.463 65.1348 240.663 60.8348 246.963H101.185Z" fill="white"/>
<path d="M169.873 162.363V230.163L211.723 162.363H236.473V267.363H211.723V198.813L169.873 267.363H145.123V162.363H169.873Z" fill="white"/>
<path d="M314.127 230.313H338.727C337.927 237.913 335.627 244.863 331.827 251.163C324.427 263.963 310.827 270.363 291.027 270.363C285.427 270.363 280.177 269.813 275.277 268.713C270.477 267.713 265.827 265.963 261.327 263.463C256.827 260.863 252.977 257.563 249.777 253.563C246.677 249.563 244.177 244.463 242.277 238.263C240.477 231.963 239.577 224.813 239.577 216.813C239.577 195.613 245.127 180.363 256.227 171.063C261.927 166.163 268.377 162.863 275.577 161.163C280.377 159.963 285.227 159.363 290.127 159.363C304.327 159.363 315.177 162.413 322.677 168.513C332.177 176.013 337.127 185.863 337.527 198.063H313.227C311.527 185.863 304.227 179.763 291.327 179.763C287.327 179.763 283.627 180.663 280.227 182.463C277.527 183.763 275.227 185.613 273.327 188.013C268.627 194.113 266.277 203.413 266.277 215.913C266.277 226.213 268.527 234.463 273.027 240.663C277.627 246.863 283.977 249.963 292.077 249.963C299.877 249.963 305.477 247.663 308.877 243.063C311.577 239.263 313.327 235.013 314.127 230.313Z" fill="white"/>
<path d="M366.994 162.363V246.963H407.644V162.363H432.394V246.963H447.244L446.194 291.063H424.444V267.363H342.244V162.363H366.994Z" fill="white"/>
<path d="M474.854 162.363V230.163L516.703 162.363H541.453V267.363H516.703V198.813L474.854 267.363H450.104V162.363H474.854Z" fill="white"/>
<path d="M610.858 182.763H571.258V267.363H546.508V162.363H635.608V267.363H610.858V182.763Z" fill="white"/>
<path d="M638.915 267.363V246.963C650.915 248.663 658.365 244.063 661.265 233.163C662.565 228.763 663.265 221.863 663.365 212.463L664.115 162.363H741.815V267.363H717.065V182.763H687.515L686.765 219.363C686.365 235.563 683.465 247.413 678.065 254.913C670.365 265.713 657.315 269.863 638.915 267.363Z" fill="white"/>
<path d="M774.713 162.363V230.163L816.563 162.363H841.313V267.363H816.563V198.813L774.713 267.363H749.963V162.363H774.713Z" fill="white"/>
<path d="M912.217 222.213H874.117V267.363H849.367V162.363H874.117V201.813H912.217V162.363H936.967V267.363H912.217V222.213Z" fill="white"/>
<path d="M943.009 267.363L982.309 162.363H1007.36L1046.81 267.363H1020.56L1013.81 247.713H975.709L969.109 267.363H943.009ZM994.909 189.813L981.109 229.863H1008.41L994.909 189.813Z" fill="white"/>
<path d="M1050.54 267.363V162.363H1099.44C1107.04 162.363 1113.64 163.363 1119.24 165.363C1124.94 167.263 1129.64 170.813 1133.34 176.013C1137.14 181.213 1139.04 187.963 1139.04 196.263C1139.04 219.563 1125.64 231.213 1098.84 231.213H1075.29V267.363H1050.54ZM1094.64 182.763H1075.29V210.813H1094.64C1100.64 210.813 1105.09 209.663 1107.99 207.363C1110.89 205.063 1112.34 201.413 1112.34 196.413C1112.34 190.513 1110.54 186.763 1106.94 185.163C1104.44 183.863 1102.29 183.163 1100.49 183.063C1098.99 182.863 1097.04 182.763 1094.64 182.763Z" fill="white"/>
<path d="M1205.39 222.213H1167.29V267.363H1142.54V162.363H1167.29V201.813H1205.39V162.363H1230.14V267.363H1205.39V222.213Z" fill="white"/>
<path d="M1236.78 162.363H1261.53V200.463H1287.63C1302.23 200.463 1312.33 204.213 1317.93 211.713C1322.83 218.113 1325.28 225.813 1325.28 234.813C1325.28 256.513 1312.68 267.363 1287.48 267.363H1236.78V162.363ZM1281.78 220.863H1261.53V246.963H1282.53C1293.23 246.963 1298.58 242.613 1298.58 233.913C1298.58 229.213 1297.18 225.863 1294.38 223.863C1291.68 221.863 1287.48 220.863 1281.78 220.863ZM1333.23 267.363V162.363H1357.98V267.363H1333.23Z" fill="white"/>
<path d="M1390.82 162.363V230.163L1432.67 162.363H1457.42V267.363H1432.67V198.813L1390.82 267.363H1366.07V162.363H1390.82ZM1381.97 136.563H1398.62C1398.62 139.563 1399.72 142.013 1401.92 143.913C1404.12 145.713 1407.37 146.613 1411.67 146.613C1415.97 146.613 1419.17 145.713 1421.27 143.913C1423.47 142.113 1424.62 139.663 1424.72 136.563H1441.37C1441.17 140.063 1440.17 143.213 1438.37 146.013C1436.57 148.813 1434.42 150.963 1431.92 152.463C1429.72 153.863 1427.02 154.913 1423.82 155.613C1419.72 156.713 1415.67 157.263 1411.67 157.263C1406.27 157.263 1400.52 156.163 1394.42 153.963C1390.92 152.663 1388.02 150.513 1385.72 147.513C1383.52 144.413 1382.27 140.763 1381.97 136.563Z" fill="white"/>
<path d="M524.63 279.363V363.963H539.48L538.28 408.063H516.38V384.363H445.43V408.063H423.53L422.33 363.963H432.68C443.28 348.263 448.58 328.163 448.58 303.663V279.363H524.63ZM499.88 363.963V299.763H471.83L471.68 312.213C471.58 324.113 470.58 334.163 468.68 342.363C466.88 350.463 463.83 357.663 459.53 363.963H499.88Z" fill="white"/>
<path d="M571.568 279.363V347.163L613.418 279.363H638.168V384.363H613.418V315.813L571.568 384.363H546.818V279.363H571.568Z" fill="white"/>
<path d="M643.223 348.213H667.223C667.723 360.713 675.973 366.963 691.973 366.963C699.373 366.963 704.773 365.713 708.173 363.213C711.573 360.613 713.273 357.263 713.273 353.163C713.273 344.663 707.273 340.413 695.273 340.413H680.423V321.063H692.723C704.223 321.063 709.973 317.163 709.973 309.363C709.973 300.963 703.173 296.763 689.573 296.763C677.173 296.763 670.773 302.313 670.373 313.413H646.223C647.023 300.213 651.173 290.763 658.673 285.063C666.273 279.263 677.473 276.363 692.273 276.363C700.673 276.363 708.023 277.263 714.323 279.063C721.023 280.863 726.423 284.113 730.523 288.813C734.623 293.413 736.673 299.113 736.673 305.913C736.673 313.213 734.573 318.713 730.373 322.413C726.173 326.113 721.623 328.313 716.723 329.013V329.313C724.623 330.913 730.473 333.813 734.273 338.013C738.073 342.213 739.973 348.163 739.973 355.863C739.973 376.863 723.723 387.363 691.223 387.363C681.423 387.363 672.873 386.063 665.573 383.463C651.873 378.463 644.423 366.713 643.223 348.213Z" fill="white"/>
<path d="M737.339 384.363L776.639 279.363H801.689L841.139 384.363H814.889L808.139 364.713H770.039L763.439 384.363H737.339ZM789.239 306.813L775.439 346.863H802.739L789.239 306.813Z" fill="white"/>
<path d="M868.567 308.163V357.663L899.767 308.163H923.917V384.363H901.117V334.863L870.067 384.363H845.767V308.163H868.567ZM855.217 279.363H871.867C871.867 283.763 873.817 286.663 877.717 288.063C880.717 288.963 883.117 289.413 884.917 289.413C888.717 289.413 891.867 288.563 894.367 286.863C896.867 285.063 898.017 282.563 897.817 279.363H914.617C913.817 285.263 911.167 290.163 906.667 294.063C902.267 298.063 895.017 300.063 884.917 300.063C874.817 300.063 867.417 298.013 862.717 293.913C858.017 289.613 855.517 284.763 855.217 279.363Z" fill="white"/>
<path d="M991.336 339.213H953.236V384.363H928.486V279.363H953.236V318.813H991.336V279.363H1016.09V384.363H991.336V339.213Z" fill="white"/>
<path d="M1045.98 299.763V321.063H1097.28V340.413H1045.98V363.963H1105.68V384.363H1021.23V279.363H1104.18V299.763H1045.98Z" fill="white"/>
<path d="M1110.04 384.363V279.363H1158.94C1166.54 279.363 1173.14 280.363 1178.74 282.363C1184.44 284.263 1189.14 287.813 1192.84 293.013C1196.64 298.213 1198.54 304.963 1198.54 313.263C1198.54 336.563 1185.14 348.213 1158.34 348.213H1134.79V384.363H1110.04ZM1154.14 299.763H1134.79V327.813H1154.14C1160.14 327.813 1164.59 326.663 1167.49 324.363C1170.39 322.063 1171.84 318.413 1171.84 313.413C1171.84 307.513 1170.04 303.763 1166.44 302.163C1163.94 300.863 1161.79 300.163 1159.99 300.063C1158.49 299.863 1156.54 299.763 1154.14 299.763Z" fill="white"/>
<path d="M893.916 461.043H898.183C901.253 460.399 904.031 460.243 906.115 460.243C906.466 460.243 906.819 460.249 907.174 460.259L921.844 433.316L925.683 454.436L935.888 446.953L935.232 461.043H951.565L934.729 477.736C934.823 477.95 934.913 478.164 935 478.378L939.115 478.271V516.927L948.746 527.363H917.758C916.447 527.497 915.332 527.523 914.516 527.523C913.745 527.523 912.651 527.499 911.333 527.363H911.242C908.761 527.914 906.284 528.163 903.915 528.163C901.714 528.163 899.136 527.968 896.394 527.363H881.403L859.905 549.357V542.267L836.916 577.401V534.764H813.679V527.949C812.396 528.093 811.127 528.163 809.889 528.163C809.159 528.163 808.387 528.141 807.582 528.09V534.764H758.062V527.363H696.419L696.229 532.644H686.351L657.064 577.401V532.644H628.611L628.394 527.363H625.964C623.194 527.961 620.57 528.163 618.299 528.163C616.455 528.163 614.553 528.024 612.632 527.728V534.764H563.111V527.363H518.369V534.764H468.85V527.363H463.946L449.971 564.121L435.995 527.363H412.57V453.363H487.371V461.043H494.838C497.133 460.518 499.519 460.243 501.969 460.243C504.423 460.243 506.853 460.51 509.218 461.043H537.713V453.363H603.593V461.043H610.405C612.977 460.482 615.511 460.243 617.938 460.243C620.289 460.243 622.864 460.469 625.518 461.043H681.238L714.064 410.561V461.043H741.882V453.363H805.722V460.75C808.167 460.35 810.365 460.243 812.089 460.243C812.44 460.243 812.793 460.249 813.147 460.259L813.679 459.285V453.363H816.903L827.817 433.316L831.462 453.363H833.119L841.86 446.953L841.562 453.363H859.905V434.149L870.732 446.212L893.916 410.561V461.043ZM501.969 483.243C499.089 483.243 496.849 484.443 495.249 486.843H495.129V484.043H491.849V511.763H495.369V501.443C496.196 503.07 497.449 504.137 499.129 504.643C500.276 504.99 501.249 505.163 502.049 505.163C504.609 505.163 506.756 504.257 508.489 502.443C510.249 500.63 511.129 497.883 511.129 494.203C511.129 490.603 510.262 487.87 508.529 486.003C506.796 484.163 504.609 483.243 501.969 483.243ZM596.232 483.243C593.352 483.243 591.112 484.443 589.512 486.843H589.392V484.043H586.112V511.763H589.632V501.443C590.458 503.07 591.712 504.137 593.392 504.643C594.538 504.99 595.512 505.163 596.312 505.163C598.872 505.163 601.018 504.257 602.752 502.443C604.512 500.63 605.392 497.883 605.392 494.203C605.392 490.603 604.525 487.87 602.792 486.003C601.058 484.163 598.872 483.243 596.232 483.243ZM791.182 483.243C788.302 483.243 786.062 484.443 784.462 486.843H784.342V484.043H781.062V511.763H784.582V501.443C785.408 503.07 786.662 504.137 788.342 504.643C789.488 504.99 790.462 505.163 791.262 505.163C793.822 505.163 795.968 504.257 797.702 502.443C799.462 500.63 800.342 497.883 800.342 494.203C800.342 490.603 799.475 487.87 797.742 486.003C796.008 484.163 793.822 483.243 791.182 483.243ZM836.678 476.363V483.563C830.865 483.483 827.145 485.177 825.518 488.643C824.692 490.323 824.278 492.137 824.278 494.083C824.278 495.55 824.478 496.883 824.878 498.083C825.278 499.283 825.932 500.403 826.838 501.443C827.745 502.483 829.025 503.31 830.678 503.923C832.358 504.51 834.358 504.83 836.678 504.883V511.763H840.198V504.883C844.412 504.777 847.532 503.79 849.558 501.923C851.585 500.057 852.598 497.443 852.598 494.083C852.598 492.403 852.318 490.897 851.758 489.563C851.225 488.203 850.505 487.15 849.598 486.403C848.772 485.657 847.758 485.057 846.558 484.603C844.718 483.857 842.598 483.51 840.198 483.563V476.363H836.678ZM656.243 484.043V487.443C656.243 493.817 655.136 498.63 652.923 501.883H650.363L650.683 509.643H653.643V504.363H671.083V509.643H674.043L674.323 501.883H670.803V484.043H656.243ZM478.597 483.243C476.917 483.243 475.41 483.537 474.077 484.123C472.743 484.71 471.717 485.443 470.997 486.323C470.33 487.15 469.823 488.123 469.477 489.243C468.943 490.817 468.677 492.497 468.677 494.283C468.677 495.217 468.77 496.203 468.957 497.243C469.223 498.737 469.797 500.137 470.677 501.443C472.437 503.923 475.197 505.163 478.957 505.163C481.73 505.163 483.823 504.497 485.237 503.163C486.65 501.83 487.517 500.27 487.837 498.483H484.477C484.237 499.737 483.623 500.75 482.637 501.523C481.65 502.297 480.383 502.683 478.837 502.683C476.677 502.683 475.063 501.91 473.997 500.363C472.93 498.817 472.397 497.03 472.397 495.003H488.037C488.037 494.95 488.023 494.79 487.997 494.523V494.003C487.863 491.79 487.503 489.91 486.917 488.363C486.517 487.297 485.997 486.417 485.357 485.723C483.837 484.07 481.583 483.243 478.597 483.243ZM617.939 483.243C616.259 483.243 614.752 483.537 613.419 484.123C612.085 484.71 611.059 485.443 610.339 486.323C609.672 487.15 609.166 488.123 608.819 489.243C608.286 490.817 608.019 492.497 608.019 494.283C608.019 495.217 608.112 496.203 608.299 497.243C608.565 498.737 609.139 500.137 610.019 501.443C611.779 503.923 614.539 505.163 618.299 505.163C621.072 505.163 623.166 504.497 624.579 503.163C625.992 501.83 626.859 500.27 627.179 498.483H623.819C623.579 499.737 622.965 500.75 621.979 501.523C620.992 502.297 619.725 502.683 618.179 502.683C616.019 502.683 614.405 501.91 613.339 500.363C612.272 498.817 611.739 497.03 611.739 495.003H627.379C627.379 494.95 627.365 494.79 627.339 494.523V494.003C627.205 491.79 626.846 489.91 626.259 488.363C625.859 487.297 625.339 486.417 624.699 485.723C623.179 484.07 620.926 483.243 617.939 483.243ZM812.089 483.243C808.676 483.243 806.329 484.043 805.049 485.643C803.982 486.977 803.449 488.443 803.449 490.043H806.809C806.729 487.163 808.489 485.723 812.089 485.723C815.129 485.723 816.649 487.083 816.649 489.803C816.649 490.977 816.396 491.737 815.889 492.083C815.542 492.297 814.476 492.47 812.689 492.603C808.822 492.95 806.196 493.643 804.809 494.683C803.422 495.67 802.729 497.123 802.729 499.043C802.729 501.07 803.342 502.603 804.569 503.643C805.822 504.657 807.596 505.163 809.889 505.163C813.222 505.163 815.542 503.963 816.849 501.563C817.062 502.737 817.422 503.523 817.929 503.923C818.462 504.323 819.315 504.523 820.489 504.523C821.155 504.523 821.689 504.47 822.089 504.363V501.883C821.076 501.91 820.449 501.71 820.209 501.283C820.049 500.857 819.969 500.257 819.969 499.483L820.169 490.083C820.195 488.723 819.956 487.55 819.449 486.563C818.942 485.577 818.249 484.87 817.369 484.443C815.849 483.643 814.089 483.243 812.089 483.243ZM906.115 483.243C902.702 483.243 900.355 484.043 899.075 485.643C898.009 486.977 897.475 488.443 897.475 490.043H900.835C900.755 487.163 902.515 485.723 906.115 485.723C909.155 485.723 910.675 487.083 910.675 489.803C910.675 490.977 910.422 491.737 909.915 492.083C909.569 492.297 908.502 492.47 906.715 492.603C902.849 492.95 900.222 493.643 898.835 494.683C897.449 495.67 896.755 497.123 896.755 499.043C896.755 501.07 897.369 502.603 898.595 503.643C899.849 504.657 901.622 505.163 903.915 505.163C907.249 505.163 909.569 503.963 910.875 501.563C911.089 502.737 911.449 503.523 911.955 503.923C912.489 504.323 913.342 504.523 914.515 504.523C915.182 504.523 915.715 504.47 916.115 504.363V501.883C915.102 501.91 914.475 501.71 914.235 501.283C914.075 500.857 913.995 500.257 913.995 499.483L914.195 490.083C914.222 488.723 913.982 487.55 913.475 486.563C912.969 485.577 912.275 484.87 911.395 484.443C909.875 483.643 908.115 483.243 906.115 483.243ZM435.571 476.363V504.363H439.331V481.923L439.251 480.843H439.331L448.451 504.363H451.491L460.571 480.843H460.691L460.611 481.923V504.363H464.371V476.363H458.731L449.971 499.403L441.211 476.363H435.571ZM513.328 484.043V490.843C513.328 491.777 513.382 492.483 513.489 492.963C513.622 493.443 513.889 493.95 514.289 494.483C515.169 495.55 517.315 496.083 520.729 496.083C522.702 496.083 524.275 496.043 525.448 495.963V504.363H528.969V484.043H525.448V493.483H524.609C524.182 493.483 523.902 493.497 523.769 493.523C522.435 493.577 521.662 493.603 521.448 493.603C519.208 493.603 517.862 493.31 517.409 492.723C517.035 492.19 516.849 491.377 516.849 490.283V484.043H513.328ZM560.713 476.363V504.363H573.113C574.9 504.363 576.433 504.123 577.713 503.643C578.993 503.163 579.953 502.51 580.593 501.683C581.26 500.857 581.726 500.003 581.993 499.123C582.286 498.243 582.433 497.283 582.433 496.243C582.433 490.697 579.313 487.923 573.073 487.923H564.473V479.523H580.593V476.363H560.713ZM631.191 484.043V504.363H634.711V494.883H644.751V504.363H648.271V484.043H644.751V492.403H634.711V484.043H631.191ZM676.544 484.043V504.363H680.504L691.064 488.123V504.363H694.584V484.043H690.664L680.064 500.243V484.043H676.544ZM699.534 484.043V504.363H703.054V494.883H713.094V504.363H716.614V484.043H713.094V492.403H703.054V484.043H699.534ZM721.585 484.043V504.363H725.105V486.523H735.505V484.043H721.585ZM764.882 476.363V504.363H768.642V479.523H782.722V476.363H764.882ZM856.396 484.043V504.363H860.356L870.916 488.123V504.363H874.436V484.043H870.516L859.916 500.243V484.043H856.396ZM879.385 484.043V504.363H882.905V494.203L892.025 504.363H896.225L886.185 493.483L895.705 484.043H891.585L882.905 492.923V484.043H879.385ZM501.209 485.723C503.182 485.723 504.702 486.47 505.769 487.963C506.862 489.457 507.409 491.537 507.409 494.203C507.409 497.137 506.822 499.297 505.649 500.683C504.476 502.017 503.062 502.683 501.409 502.683C499.836 502.683 498.382 502.003 497.049 500.643C495.769 499.23 495.129 497.11 495.129 494.283C495.129 490.39 496.182 487.817 498.289 486.563C499.196 486.003 500.169 485.723 501.209 485.723ZM595.472 485.723C597.445 485.723 598.965 486.47 600.032 487.963C601.125 489.457 601.672 491.537 601.672 494.203C601.672 497.137 601.085 499.297 599.912 500.683C598.738 502.017 597.325 502.683 595.672 502.683C594.098 502.683 592.645 502.003 591.312 500.643C590.032 499.23 589.392 497.11 589.392 494.283C589.392 490.39 590.445 487.817 592.552 486.563C593.458 486.003 594.432 485.723 595.472 485.723ZM790.422 485.723C792.395 485.723 793.915 486.47 794.982 487.963C796.075 489.457 796.622 491.537 796.622 494.203C796.622 497.137 796.035 499.297 794.862 500.683C793.688 502.017 792.275 502.683 790.622 502.683C789.048 502.683 787.595 502.003 786.262 500.643C784.982 499.23 784.342 497.11 784.342 494.283C784.342 490.39 785.395 487.817 787.502 486.563C788.408 486.003 789.382 485.723 790.422 485.723ZM816.569 495.683C816.489 497.017 816.249 498.163 815.849 499.123C815.475 500.083 814.969 500.817 814.329 501.323C813.716 501.803 813.075 502.15 812.409 502.363C811.769 502.577 811.062 502.683 810.289 502.683C809.089 502.683 808.129 502.35 807.409 501.683C806.715 501.017 806.369 500.097 806.369 498.923C806.369 497.457 806.956 496.443 808.129 495.883C808.609 495.643 809.955 495.337 812.169 494.963C812.809 494.857 813.716 494.763 814.889 494.683C815.662 494.497 816.249 494.257 816.649 493.963L816.569 495.683ZM910.595 495.683C910.515 497.017 910.275 498.163 909.875 499.123C909.502 500.083 908.995 500.817 908.355 501.323C907.742 501.803 907.102 502.15 906.435 502.363C905.795 502.577 905.089 502.683 904.315 502.683C903.115 502.683 902.155 502.35 901.435 501.683C900.742 501.017 900.395 500.097 900.395 498.923C900.395 497.457 900.982 496.443 902.155 495.883C902.635 495.643 903.982 495.337 906.195 494.963C906.835 494.857 907.742 494.763 908.915 494.683C909.689 494.497 910.275 494.257 910.675 493.963L910.595 495.683ZM831.038 487.363C832.772 486.35 834.652 485.91 836.678 486.043V502.403C834.038 502.457 831.865 501.71 830.158 500.163C828.718 498.803 827.998 496.763 827.998 494.043C827.998 490.817 829.012 488.59 831.038 487.363ZM840.198 486.043C841.638 485.963 842.892 486.11 843.958 486.483C845.052 486.83 845.892 487.297 846.478 487.883C847.092 488.443 847.585 489.123 847.958 489.923C848.358 490.723 848.612 491.457 848.718 492.123C848.825 492.763 848.878 493.403 848.878 494.043C848.878 496.043 848.345 497.857 847.278 499.483C845.998 501.43 843.638 502.403 840.198 502.403V486.043ZM667.283 486.523V501.883H656.643C657.656 500.31 658.376 498.377 658.803 496.083C659.283 493.763 659.523 491.523 659.523 489.363V486.523H667.283ZM572.313 491.083C576.5 491.083 578.593 492.817 578.593 496.283C578.593 499.563 576.5 501.203 572.313 501.203H564.473V491.083H572.313ZM542.617 491.443V495.843H546.577V491.443H542.617ZM746.786 491.443V495.843H750.746V491.443H746.786ZM918.944 495.068L919.304 495.459C919.253 495.253 919.197 495.042 919.136 494.826L918.944 495.068ZM918.135 494.191L918.752 494.86L919.034 494.483C918.945 494.195 918.845 493.899 918.733 493.598L918.135 494.191ZM478.677 485.723C480.863 485.723 482.37 486.537 483.197 488.163C483.917 489.497 484.29 490.95 484.317 492.523H472.397C472.397 490.977 472.783 489.537 473.557 488.203C474.49 486.55 476.197 485.723 478.677 485.723ZM618.019 485.723C620.205 485.723 621.712 486.537 622.539 488.163C623.259 489.497 623.632 490.95 623.659 492.523H611.739C611.739 490.977 612.125 489.537 612.899 488.203C613.832 486.55 615.539 485.723 618.019 485.723ZM1198.54 313.263C1198.54 304.963 1196.64 298.213 1192.84 293.013C1189.14 287.813 1184.44 284.263 1178.74 282.363C1173.14 280.363 1166.54 279.363 1158.94 279.363H1110.04V384.363H1134.79V348.213H1158.34C1184.73 348.213 1198.12 336.924 1198.54 314.347L1198.54 313.263ZM692.273 276.363C677.473 276.363 666.273 279.263 658.673 285.063C651.173 290.763 647.023 300.213 646.223 313.413H670.373C670.773 302.313 677.173 296.763 689.573 296.763C703.173 296.763 709.973 300.963 709.973 309.363C709.973 317.163 704.223 321.063 692.723 321.063H680.423V340.413H695.273C707.273 340.413 713.273 344.663 713.273 353.163C713.273 357.263 711.573 360.613 708.173 363.213C704.773 365.713 699.373 366.963 691.973 366.963C675.973 366.963 667.723 360.713 667.223 348.213H643.223C644.423 366.713 651.873 378.463 665.573 383.463C672.873 386.063 681.423 387.363 691.223 387.363C723.723 387.363 739.973 376.863 739.973 355.863C739.973 348.163 738.073 342.213 734.273 338.013C730.473 333.813 724.623 330.913 716.723 329.313V329.013C721.623 328.313 726.173 326.113 730.373 322.413C734.441 318.829 736.54 313.555 736.667 306.593L736.673 305.913C736.673 299.113 734.623 293.413 730.523 288.813C726.423 284.113 721.023 280.863 714.323 279.063C708.023 277.263 700.673 276.363 692.273 276.363ZM776.639 279.363L737.339 384.363H763.439L770.039 364.713H808.139L814.889 384.363H841.139L801.689 279.363H776.639ZM546.818 279.363V384.363H571.568L613.418 315.813V384.363H638.168V279.363H613.418L571.568 347.163V279.363H546.818ZM845.767 308.163V384.363H870.067L901.117 334.863V384.363H923.917V308.163H899.767L868.567 357.663V308.163H845.767ZM991.336 318.813H953.236V279.363H928.486V384.363H953.236V339.213H991.336V384.363H1016.09V279.363H991.336V318.813ZM1021.23 279.363V384.363H1105.68V363.963H1045.98V340.413H1097.28V321.063H1045.98V299.763H1104.18V279.363H1021.23ZM499.88 299.763V363.963H459.53C463.83 357.663 466.88 350.463 468.68 342.363C470.58 334.163 471.58 324.113 471.68 312.213L471.83 299.763H499.88ZM802.739 346.863H775.439L789.239 306.813L802.739 346.863ZM855.217 279.363C855.517 284.763 858.017 289.613 862.717 293.913C867.417 298.013 874.817 300.063 884.917 300.063C895.017 300.063 902.267 298.063 906.667 294.063C911.167 290.163 913.817 285.263 914.617 279.363H897.817C898.017 282.563 896.867 285.063 894.367 286.863C891.867 288.563 888.717 289.413 884.917 289.413C883.117 289.413 880.717 288.963 877.717 288.063C873.817 286.663 871.867 283.763 871.867 279.363H855.217ZM290.127 159.363C285.227 159.363 280.377 159.963 275.577 161.163C268.377 162.863 261.927 166.163 256.227 171.063C245.127 180.363 239.577 195.613 239.577 216.813C239.577 224.813 240.477 231.963 242.277 238.263C244.177 244.463 246.677 249.563 249.777 253.563C252.977 257.563 256.827 260.863 261.327 263.463C265.827 265.963 270.477 267.713 275.277 268.713C280.177 269.813 285.427 270.363 291.027 270.363C310.827 270.363 324.427 263.963 331.827 251.163C335.627 244.863 337.927 237.913 338.727 230.313H314.127C313.327 235.013 311.577 239.263 308.877 243.063L308.552 243.488C305.125 247.805 299.633 249.963 292.077 249.963C283.977 249.963 277.627 246.863 273.027 240.663C268.527 234.463 266.277 226.213 266.277 215.913C266.277 203.413 268.627 194.113 273.327 188.013C275.227 185.613 277.527 183.763 280.227 182.463C283.627 180.663 287.327 179.763 291.327 179.763C304.227 179.763 311.527 185.863 313.227 198.063H337.527C337.127 185.863 332.177 176.013 322.677 168.513C315.177 162.413 304.327 159.363 290.127 159.363ZM664.115 162.363L663.339 214.196C663.175 222.716 662.484 229.038 661.265 233.163C658.365 244.063 650.915 248.663 638.915 246.963V267.363C657.315 269.863 670.365 265.713 678.065 254.913C683.465 247.413 686.365 235.563 686.765 219.363L687.515 182.763H717.065V267.363H741.815V162.363H664.115ZM816.563 162.363L774.713 230.163V162.363H749.963V267.363H774.713L816.563 198.813V267.363H841.313V162.363H816.563ZM450.104 162.363V267.363H474.854L516.703 198.813V267.363H541.453V162.363H516.703L474.854 230.163V162.363H450.104ZM546.508 162.363V267.363H571.258V182.763H610.858V267.363H635.608V162.363H546.508ZM982.309 162.363L943.009 267.363H969.109L975.709 247.713H1013.81L1020.56 267.363H1046.81L1007.36 162.363H982.309ZM1050.54 267.363H1075.29V231.213H1098.84C1125.64 231.213 1139.04 219.563 1139.04 196.263C1139.04 187.963 1137.14 181.213 1133.34 176.013C1129.75 170.976 1125.23 167.486 1119.77 165.546L1119.24 165.363C1113.64 163.363 1107.04 162.363 1099.44 162.363H1050.54V267.363ZM1119.54 251.98C1112.81 253.574 1105.8 254.213 1098.84 254.213H1098.29V256.363H1119.54V251.98ZM101.185 182.763V246.963H60.8348C65.1348 240.663 68.1848 233.463 69.9848 225.363C71.8848 217.163 72.8848 207.113 72.9848 195.213L73.1348 182.763H101.185ZM1008.41 229.863H981.109L994.909 189.813L1008.41 229.863ZM874.117 162.363H849.367V267.363H874.117V222.213H912.217V267.363H936.967V162.363H912.217V201.813H874.117V162.363ZM1167.29 162.363H1142.54V267.363H1167.29V222.213H1205.39V267.363H1230.14V162.363H1205.39V201.813H1167.29V162.363ZM1381.97 136.563C1382.27 140.763 1383.52 144.413 1385.72 147.513C1388.02 150.513 1390.92 152.663 1394.42 153.963C1400.52 156.163 1406.27 157.263 1411.67 157.263C1415.67 157.263 1419.72 156.713 1423.82 155.613C1427.02 154.913 1429.72 153.863 1431.92 152.463C1434.42 150.963 1436.57 148.813 1438.37 146.013C1440.17 143.213 1441.17 140.063 1441.37 136.563H1424.72C1424.62 139.663 1423.47 142.113 1421.27 143.913C1419.17 145.713 1415.97 146.613 1411.67 146.613C1407.37 146.613 1404.12 145.713 1401.92 143.913C1399.72 142.013 1398.62 139.563 1398.62 136.563H1381.97ZM359.655 45.3633L398.505 121.413C396.705 128.113 392.305 131.463 385.305 131.463C381.805 131.463 378.255 130.963 374.655 129.963V150.363C379.755 151.663 385.005 152.313 390.405 152.313C397.105 152.313 402.855 151.163 407.655 148.863C413.655 145.863 418.755 139.213 422.955 128.913L457.155 45.3633H430.305L412.155 96.6633L389.205 45.3633H359.655ZM464.515 45.3633L463.739 97.1963C463.575 105.716 462.884 112.038 461.665 116.163C458.765 127.063 451.315 131.663 439.315 129.963V150.363C457.715 152.863 470.765 148.713 478.465 137.913C483.865 130.413 486.765 118.563 487.165 102.363L487.915 65.7633H517.465V150.363H542.215V45.3633H464.515ZM614.581 45.3633V65.7633H646.381V150.363H671.131V65.7633H702.781V45.3633H614.581ZM590.863 103.863C602.163 103.863 607.813 108.213 607.813 116.913L607.81 117.318C607.643 125.748 602.244 129.963 591.613 129.963H570.613V103.863H590.863ZM828.68 100.863V119.613H872.03V100.863H828.68ZM538.28 408.063L539.48 363.963H524.63V279.363H448.58V303.663C448.58 328.163 443.28 348.263 432.68 363.963H422.33L423.53 408.063H445.43V384.363H516.38V408.063H538.28ZM1171.84 313.413C1171.84 318.413 1170.39 322.063 1167.49 324.363L1167.22 324.575C1164.32 326.734 1159.96 327.813 1154.14 327.813H1134.79V299.763H1154.14C1156.54 299.763 1158.49 299.863 1159.99 300.063C1161.79 300.163 1163.94 300.863 1166.44 302.163C1170.04 303.763 1171.84 307.513 1171.84 313.413ZM446.194 291.063L447.244 246.963H432.394V162.363H407.644V246.963H366.994V162.363H342.244V267.363H424.444V291.063H446.194ZM1298.58 233.913C1298.58 242.613 1293.23 246.963 1282.53 246.963H1261.53V220.863H1281.78C1287.48 220.863 1291.68 221.863 1294.38 223.863C1297.18 225.863 1298.58 229.213 1298.58 233.913ZM289.277 215.913C289.277 222.327 290.547 225.413 291.391 226.774C291.412 226.67 291.435 226.563 291.453 226.454L292.832 218.353L290.789 203.692C290.127 205.582 289.277 209.301 289.277 215.913ZM1112.34 196.413C1112.34 201.413 1110.89 205.063 1107.99 207.363L1107.71 207.575C1104.81 209.734 1100.45 210.813 1094.64 210.813H1075.29V182.763H1094.64C1097.04 182.763 1098.99 182.863 1100.49 183.063C1102.29 183.163 1104.44 183.863 1106.94 185.163C1110.54 186.763 1112.34 190.513 1112.34 196.413ZM49.8848 186.663C49.8848 211.163 44.5848 231.263 33.9848 246.963H23.6348L24.8348 291.063H46.7348V267.363H117.685V291.063H139.585L140.785 246.963H125.935V162.363H49.8848V186.663ZM145.123 267.363H169.873L211.723 198.813V267.363H236.473V162.363H211.723L169.873 230.163V162.363H145.123V267.363ZM1236.78 267.363H1287.48C1312.68 267.363 1325.28 256.513 1325.28 234.813C1325.28 225.813 1322.83 218.113 1317.93 211.713C1312.33 204.213 1302.23 200.463 1287.63 200.463H1261.53V162.363H1236.78V267.363ZM1333.23 162.363V267.363H1357.98V162.363H1333.23ZM1366.07 267.363H1390.82L1432.67 198.813V267.363H1457.42V162.363H1432.67L1390.82 230.163V162.363H1366.07V267.363ZM775.266 45.3633L733.416 113.163V45.3633H708.666V150.363H733.416L775.266 81.8133V150.363H800.016V45.3633H775.266ZM234.982 150.363H259.732V75.3633H260.182L286.432 150.363H303.232L329.482 75.3633H329.932V150.363H354.682V45.3633H319.882L294.832 117.513L269.782 45.3633H234.982V150.363ZM545.863 150.363H596.563C609.263 150.363 618.763 147.713 625.063 142.413C631.363 137.113 634.513 128.913 634.513 117.813C634.513 114.413 634.163 111.213 633.463 108.213C632.863 105.113 631.663 102.013 629.863 98.9133C628.163 95.8133 625.963 93.1633 623.263 90.9633C620.563 88.7633 616.913 86.9633 612.313 85.5633C607.813 84.1633 602.613 83.4633 596.713 83.4633H570.613V45.3633H545.863V150.363ZM823.016 77.8633H895.03V139.363H959.967V156.442L966.359 139.363H987.966L995.148 118.518L1002.17 139.363H1023.29L1027.54 150.674V139.363H1099.44C1106.3 139.363 1113.06 140.008 1119.54 141.523V139.363H1284.53V177.463H1287.63C1295.14 177.463 1302.89 178.273 1310.23 180.42V139.363H1359.13C1359.09 138.977 1359.06 138.59 1359.03 138.202L1357.27 113.563H1465.72L1464.33 137.875C1464.3 138.372 1464.27 138.868 1464.22 139.363H1480.42V290.363H1409.67V280.627L1403.73 290.363H1380.69L1367.82 311.214V290.363H1310.23V287.474C1302.88 289.563 1295.12 290.363 1287.48 290.363H1217.44C1220.36 297.694 1221.54 305.51 1221.54 313.264C1221.54 329.362 1216.77 345.373 1203.59 356.833C1191.02 367.758 1174.56 371.213 1158.34 371.213H1157.79V407.363H864.429L845.567 437.288V407.363H798.471L791.721 387.713H786.577L779.977 407.363H719.631C710.679 409.536 701.03 410.363 691.223 410.363C680.703 410.363 670.581 409.12 661.168 406.226V407.363H590.418V397.627L584.475 407.363H561.438L561.301 407.584L560.663 431.063H493.38V407.363H468.43V431.063H401.147L398.695 340.963H419.074C422.211 333.545 424.345 324.671 425.182 314.063H401.444V290.363H319.244V289.036C310.477 292.034 300.9 293.363 291.027 293.363C283.924 293.363 276.97 292.665 270.239 291.154C266.554 290.367 262.964 289.288 259.473 287.938V290.363H188.723V280.627L182.779 290.363H162.612L161.968 314.063H94.6846V290.363H69.7344V314.063H2.45215L0 223.963H20.3789C24.4899 214.24 26.8848 202.015 26.8848 186.663V139.363H192.873V149.112L198.892 139.363H211.982V22.3633H286.144L294.832 47.3877L303.521 22.3633H404.112L409.658 34.7627L414.045 22.3633H756.416V32.1133L762.435 22.3633H784.613L798.266 0V22.3633H823.016V77.8633Z" fill="black"/>
</svg>
