<svg width="50" height="50" viewBox="0 0 50 50" fill="none" xmlns="http://www.w3.org/2000/svg">
<path fill-rule="evenodd" clip-rule="evenodd" d="M41.0882 13.5184C43.1863 13.5184 45.018 12.3168 45.919 10.5513C43.958 7.64942 41.4126 5.16672 38.4566 3.29978C36.7839 4.21909 35.6526 6.0066 35.6526 8.06857C35.6526 11.0797 38.0751 13.5184 41.0882 13.5184Z" fill="#EAEAEA"/>
<path fill-rule="evenodd" clip-rule="evenodd" d="M45.9823 18.7476C46.0466 18.6828 46.1101 18.6172 46.1727 18.5509L45.9482 18.6064C45.9598 18.6534 45.9711 18.7005 45.9823 18.7476Z" fill="#EAEAEA"/>
<path fill-rule="evenodd" clip-rule="evenodd" d="M45.9823 18.7476C46.0466 18.6828 46.1101 18.6172 46.1727 18.5509C47.0979 17.572 47.8513 16.4278 48.3845 15.1683C48.7018 15.972 48.9902 16.782 49.2283 17.6219C48.81 18.2951 48.3555 18.9313 47.8298 19.5179L50 28.137C49.3215 33.196 47.1443 37.7697 43.9431 41.4242L43.1536 35.6954C40.8817 38.5718 37.8444 40.8257 34.3461 42.1567L33.028 48.7048C30.5116 49.5439 27.8149 50 25.0321 50C21.6938 50 18.5075 49.3559 15.6087 48.1763L19.3031 42.0195C16.4714 40.8821 13.9541 39.1357 11.9169 36.9441L6.61861 41.9888C3.05703 38.1598 0.663585 33.2392 0 27.7682L6.54312 24.5157C6.51452 24.0766 6.5 23.6338 6.5 23.1875C6.50007 19.7068 7.38358 16.4313 8.94012 13.5686L1.97589 14.4739C4.52054 8.69141 9.17817 4.05237 14.953 1.50519L26.7628 4.00204C27.7147 2.41664 28.969 1.06323 30.4685 0C31.3194 0.187952 32.1412 0.412079 32.956 0.694401C29.2863 2.54011 26.7628 6.36835 26.7628 10.7754C26.7628 17.014 31.802 22.0793 38.0101 22.0793C41.1267 22.0793 43.9439 20.8032 45.9823 18.7476ZM42.9595 34.287L41.4705 23.4838C40.3745 23.7874 39.2064 23.9541 38.01 23.9541L34.5817 40.986C37.9702 39.5685 40.8692 37.2297 42.9595 34.287ZM7.5 23.1875C7.50008 19.6192 8.47757 16.2761 10.1822 13.4072L24.917 11.4918C24.975 12.7226 25.2123 13.9092 25.5946 15.0456L7.51827 24.031C7.50613 23.7513 7.5 23.4701 7.5 23.1875ZM31.2684 22.0793L19.8245 41.1506C17.0655 40.0688 14.6156 38.3815 12.6413 36.2545L29.1703 20.5167C29.8198 21.1025 30.5186 21.631 31.2684 22.0793Z" fill="#EAEAEA"/>
</svg>
